<svg width="36" height="35" viewBox="0 0 36 35" fill="none" xmlns="http://www.w3.org/2000/svg">
<path d="M21.645 27.4458C21.36 27.4458 21.075 27.3438 20.85 27.125C20.6408 26.9192 20.5234 26.6415 20.5234 26.3521C20.5234 26.0627 20.6408 25.785 20.85 25.5792L29.16 17.5L20.85 9.42084C20.6408 9.21501 20.5234 8.9373 20.5234 8.64792C20.5234 8.35854 20.6408 8.08083 20.85 7.875C21.285 7.45209 22.005 7.45209 22.44 7.875L31.545 16.7271C31.98 17.15 31.98 17.85 31.545 18.2729L22.44 27.125C22.215 27.3438 21.93 27.4458 21.645 27.4458V27.4458Z" fill="#EEEDDE"/>
<path d="M30.495 18.5938H5.25C4.635 18.5938 4.125 18.0979 4.125 17.5C4.125 16.9021 4.635 16.4062 5.25 16.4062H30.495C31.11 16.4062 31.62 16.9021 31.62 17.5C31.62 18.0979 31.11 18.5938 30.495 18.5938Z" fill="#EEEDDE"/>
</svg>
