<svg width="50" height="50" viewBox="0 0 50 50" fill="none" xmlns="http://www.w3.org/2000/svg">
<path d="M12.5 19.4375V30.5625C12.5 37.4792 17.3958 40.2917 23.375 36.8542L26.0417 35.3125C26.6875 34.9375 27.0833 34.25 27.0833 33.5V16.5C27.0833 15.75 26.6875 15.0625 26.0417 14.6875L23.375 13.1458C17.3958 9.70834 12.5 12.5208 12.5 19.4375ZM29.1667 18.3167V31.7125C29.1667 32.525 30.0417 33.025 30.7292 32.6083L33.0208 31.275C39 27.8375 39 22.1708 33.0208 18.7333L30.7292 17.4C30.5694 17.31 30.3889 17.2634 30.2055 17.265C30.0222 17.2666 29.8425 17.3162 29.6843 17.409C29.5262 17.5018 29.3951 17.6345 29.3043 17.7937C29.2135 17.953 29.166 18.1333 29.1667 18.3167V18.3167Z" fill="#FFE6F7"/>
</svg>
