<svg width="50" height="50" viewBox="0 0 50 50" fill="none" xmlns="http://www.w3.org/2000/svg">
<path d="M28.6458 20.8333C29.1984 20.8333 29.7283 20.6138 30.119 20.2231C30.5097 19.8324 30.7292 19.3025 30.7292 18.75C30.7292 18.1974 30.5097 17.6675 30.119 17.2768C29.7283 16.8861 29.1984 16.6666 28.6458 16.6666C28.0933 16.6666 27.5634 16.8861 27.1727 17.2768C26.782 17.6675 26.5625 18.1974 26.5625 18.75C26.5625 19.3025 26.782 19.8324 27.1727 20.2231C27.5634 20.6138 28.0933 20.8333 28.6458 20.8333V20.8333ZM21.3542 20.8333C21.9067 20.8333 22.4366 20.6138 22.8273 20.2231C23.218 19.8324 23.4375 19.3025 23.4375 18.75C23.4375 18.1974 23.218 17.6675 22.8273 17.2768C22.4366 16.8861 21.9067 16.6666 21.3542 16.6666C20.8016 16.6666 20.2717 16.8861 19.881 17.2768C19.4903 17.6675 19.2708 18.1974 19.2708 18.75C19.2708 19.3025 19.4903 19.8324 19.881 20.2231C20.2717 20.6138 20.8016 20.8333 21.3542 20.8333V20.8333ZM32.2917 27.0833C32.8442 27.0833 33.3741 26.8638 33.7648 26.4731C34.1555 26.0824 34.375 25.5525 34.375 25C34.375 24.4474 34.1555 23.9175 33.7648 23.5268C33.3741 23.1361 32.8442 22.9166 32.2917 22.9166C31.7391 22.9166 31.2092 23.1361 30.8185 23.5268C30.4278 23.9175 30.2083 24.4474 30.2083 25C30.2083 25.5525 30.4278 26.0824 30.8185 26.4731C31.2092 26.8638 31.7391 27.0833 32.2917 27.0833V27.0833ZM35.7292 20.3125C36.1436 20.3125 36.541 20.1479 36.834 19.8548C37.127 19.5618 37.2917 19.1644 37.2917 18.75C37.2917 18.3356 37.127 17.9382 36.834 17.6451C36.541 17.3521 36.1436 17.1875 35.7292 17.1875C35.3148 17.1875 34.9173 17.3521 34.6243 17.6451C34.3313 17.9382 34.1667 18.3356 34.1667 18.75C34.1667 19.1644 34.3313 19.5618 34.6243 19.8548C34.9173 20.1479 35.3148 20.3125 35.7292 20.3125V20.3125ZM35.7292 32.8125C36.1436 32.8125 36.541 32.6479 36.834 32.3548C37.127 32.0618 37.2917 31.6644 37.2917 31.25C37.2917 30.8356 37.127 30.4382 36.834 30.1451C36.541 29.8521 36.1436 29.6875 35.7292 29.6875C35.3148 29.6875 34.9173 29.8521 34.6243 30.1451C34.3313 30.4382 34.1667 30.8356 34.1667 31.25C34.1667 31.6644 34.3313 32.0618 34.6243 32.3548C34.9173 32.6479 35.3148 32.8125 35.7292 32.8125V32.8125ZM41.1458 26.5625C41.5602 26.5625 41.9577 26.3979 42.2507 26.1048C42.5437 25.8118 42.7083 25.4144 42.7083 25C42.7083 24.5856 42.5437 24.1882 42.2507 23.8951C41.9577 23.6021 41.5602 23.4375 41.1458 23.4375C40.7314 23.4375 40.334 23.6021 40.041 23.8951C39.748 24.1882 39.5833 24.5856 39.5833 25C39.5833 25.4144 39.748 25.8118 40.041 26.1048C40.334 26.3979 40.7314 26.5625 41.1458 26.5625V26.5625ZM14.1667 20.3125C14.5811 20.3125 14.9785 20.1479 15.2715 19.8548C15.5645 19.5618 15.7292 19.1644 15.7292 18.75C15.7292 18.3356 15.5645 17.9382 15.2715 17.6451C14.9785 17.3521 14.5811 17.1875 14.1667 17.1875C13.7523 17.1875 13.3548 17.3521 13.0618 17.6451C12.7688 17.9382 12.6042 18.3356 12.6042 18.75C12.6042 19.1644 12.7688 19.5618 13.0618 19.8548C13.3548 20.1479 13.7523 20.3125 14.1667 20.3125V20.3125ZM14.1667 32.8125C14.5811 32.8125 14.9785 32.6479 15.2715 32.3548C15.5645 32.0618 15.7292 31.6644 15.7292 31.25C15.7292 30.8356 15.5645 30.4382 15.2715 30.1451C14.9785 29.8521 14.5811 29.6875 14.1667 29.6875C13.7523 29.6875 13.3548 29.8521 13.0618 30.1451C12.7688 30.4382 12.6042 30.8356 12.6042 31.25C12.6042 31.6644 12.7688 32.0618 13.0618 32.3548C13.3548 32.6479 13.7523 32.8125 14.1667 32.8125V32.8125ZM8.75 26.5625C9.1644 26.5625 9.56183 26.3979 9.85485 26.1048C10.1479 25.8118 10.3125 25.4144 10.3125 25C10.3125 24.5856 10.1479 24.1882 9.85485 23.8951C9.56183 23.6021 9.1644 23.4375 8.75 23.4375C8.3356 23.4375 7.93817 23.6021 7.64515 23.8951C7.35212 24.1882 7.1875 24.5856 7.1875 25C7.1875 25.4144 7.35212 25.8118 7.64515 26.1048C7.93817 26.3979 8.3356 26.5625 8.75 26.5625V26.5625ZM33.125 12.3958C33.5394 12.3958 33.9368 12.2312 34.2299 11.9382C34.5229 11.6451 34.6875 11.2477 34.6875 10.8333C34.6875 10.4189 34.5229 10.0215 34.2299 9.72846C33.9368 9.43543 33.5394 9.27081 33.125 9.27081C32.7106 9.27081 32.3132 9.43543 32.0201 9.72846C31.7271 10.0215 31.5625 10.4189 31.5625 10.8333C31.5625 11.2477 31.7271 11.6451 32.0201 11.9382C32.3132 12.2312 32.7106 12.3958 33.125 12.3958V12.3958ZM16.875 12.3958C17.2894 12.3958 17.6868 12.2312 17.9799 11.9382C18.2729 11.6451 18.4375 11.2477 18.4375 10.8333C18.4375 10.4189 18.2729 10.0215 17.9799 9.72846C17.6868 9.43543 17.2894 9.27081 16.875 9.27081C16.4606 9.27081 16.0632 9.43543 15.7701 9.72846C15.4771 10.0215 15.3125 10.4189 15.3125 10.8333C15.3125 11.2477 15.4771 11.6451 15.7701 11.9382C16.0632 12.2312 16.4606 12.3958 16.875 12.3958ZM25.1042 14.0625C25.5186 14.0625 25.916 13.8979 26.209 13.6048C26.502 13.3118 26.6667 12.9144 26.6667 12.5C26.6667 12.0856 26.502 11.6882 26.209 11.3951C25.916 11.1021 25.5186 10.9375 25.1042 10.9375C24.6898 10.9375 24.2923 11.1021 23.9993 11.3951C23.7063 11.6882 23.5417 12.0856 23.5417 12.5C23.5417 12.9144 23.7063 13.3118 23.9993 13.6048C24.2923 13.8979 24.6898 14.0625 25.1042 14.0625ZM33.125 41.1458C33.5394 41.1458 33.9368 40.9812 34.2299 40.6882C34.5229 40.3951 34.6875 39.9977 34.6875 39.5833C34.6875 39.1689 34.5229 38.7715 34.2299 38.4785C33.9368 38.1854 33.5394 38.0208 33.125 38.0208C32.7106 38.0208 32.3132 38.1854 32.0201 38.4785C31.7271 38.7715 31.5625 39.1689 31.5625 39.5833C31.5625 39.9977 31.7271 40.3951 32.0201 40.6882C32.3132 40.9812 32.7106 41.1458 33.125 41.1458V41.1458ZM16.875 41.1458C17.2894 41.1458 17.6868 40.9812 17.9799 40.6882C18.2729 40.3951 18.4375 39.9977 18.4375 39.5833C18.4375 39.1689 18.2729 38.7715 17.9799 38.4785C17.6868 38.1854 17.2894 38.0208 16.875 38.0208C16.4606 38.0208 16.0632 38.1854 15.7701 38.4785C15.4771 38.7715 15.3125 39.1689 15.3125 39.5833C15.3125 39.9977 15.4771 40.3951 15.7701 40.6882C16.0632 40.9812 16.4606 41.1458 16.875 41.1458ZM25.1042 39.4791C25.5186 39.4791 25.916 39.3145 26.209 39.0215C26.502 38.7285 26.6667 38.331 26.6667 37.9166C26.6667 37.5022 26.502 37.1048 26.209 36.8118C25.916 36.5188 25.5186 36.3541 25.1042 36.3541C24.6898 36.3541 24.2923 36.5188 23.9993 36.8118C23.7063 37.1048 23.5417 37.5022 23.5417 37.9166C23.5417 38.331 23.7063 38.7285 23.9993 39.0215C24.2923 39.3145 24.6898 39.4791 25.1042 39.4791ZM17.7083 27.0833C18.2609 27.0833 18.7908 26.8638 19.1815 26.4731C19.5722 26.0824 19.7917 25.5525 19.7917 25C19.7917 24.4474 19.5722 23.9175 19.1815 23.5268C18.7908 23.1361 18.2609 22.9166 17.7083 22.9166C17.1558 22.9166 16.6259 23.1361 16.2352 23.5268C15.8445 23.9175 15.625 24.4474 15.625 25C15.625 25.5525 15.8445 26.0824 16.2352 26.4731C16.6259 26.8638 17.1558 27.0833 17.7083 27.0833V27.0833ZM21.3542 33.3333C21.9067 33.3333 22.4366 33.1138 22.8273 32.7231C23.218 32.3324 23.4375 31.8025 23.4375 31.25C23.4375 30.6974 23.218 30.1675 22.8273 29.7768C22.4366 29.3861 21.9067 29.1666 21.3542 29.1666C20.8016 29.1666 20.2717 29.3861 19.881 29.7768C19.4903 30.1675 19.2708 30.6974 19.2708 31.25C19.2708 31.8025 19.4903 32.3324 19.881 32.7231C20.2717 33.1138 20.8016 33.3333 21.3542 33.3333V33.3333ZM28.6458 33.3333C29.1984 33.3333 29.7283 33.1138 30.119 32.7231C30.5097 32.3324 30.7292 31.8025 30.7292 31.25C30.7292 30.6974 30.5097 30.1675 30.119 29.7768C29.7283 29.3861 29.1984 29.1666 28.6458 29.1666C28.0933 29.1666 27.5634 29.3861 27.1727 29.7768C26.782 30.1675 26.5625 30.6974 26.5625 31.25C26.5625 31.8025 26.782 32.3324 27.1727 32.7231C27.5634 33.1138 28.0933 33.3333 28.6458 33.3333V33.3333Z" stroke="#FFABE1" stroke-miterlimit="10"/>
</svg>
