<svg width="50" height="50" viewBox="0 0 50 50" fill="none" xmlns="http://www.w3.org/2000/svg">
<path d="M27.9167 36.2875H22.6875C19.2709 36.2875 16.5 33.4125 16.5 29.8708C16.5 29.0167 17.2084 28.3083 18.0625 28.3083C18.9167 28.3083 19.625 29.0167 19.625 29.8708C19.625 31.6833 21 33.1625 22.6875 33.1625H27.9167C29.2709 33.1625 30.3959 31.9542 30.3959 30.4958C30.3959 28.6833 29.75 28.3292 28.6875 27.9542L20.2917 24.9958C18.6667 24.4333 16.4792 23.225 16.4792 19.4958C16.4792 16.2875 19 13.7042 22.0834 13.7042H27.3125C30.7292 13.7042 33.5 16.5792 33.5 20.1208C33.5 20.975 32.7917 21.6833 31.9375 21.6833C31.0834 21.6833 30.375 20.975 30.375 20.1208C30.375 18.3083 29 16.8292 27.3125 16.8292H22.0834C20.7292 16.8292 19.6042 18.0375 19.6042 19.4958C19.6042 21.3083 20.25 21.6625 21.3125 22.0375L29.7084 24.9958C31.3334 25.5583 33.5209 26.7667 33.5209 30.4958C33.5 33.6833 31 36.2875 27.9167 36.2875V36.2875Z" fill="#937DC2"/>
<path d="M25 39.0625C24.1458 39.0625 23.4375 38.3542 23.4375 37.5V12.5C23.4375 11.6458 24.1458 10.9375 25 10.9375C25.8542 10.9375 26.5625 11.6458 26.5625 12.5V37.5C26.5625 38.3542 25.8542 39.0625 25 39.0625Z" fill="#937DC2"/>
<path d="M25 47.3959C12.6459 47.3959 2.60419 37.3542 2.60419 25C2.60419 12.6459 12.6459 2.60419 25 2.60419C37.3542 2.60419 47.3959 12.6459 47.3959 25C47.3959 37.3542 37.3542 47.3959 25 47.3959ZM25 5.72919C14.375 5.72919 5.72919 14.375 5.72919 25C5.72919 35.625 14.375 44.2709 25 44.2709C35.625 44.2709 44.2709 35.625 44.2709 25C44.2709 14.375 35.625 5.72919 25 5.72919Z" fill="#937DC2"/>
</svg>
